<svg width="410" height="30" viewBox="0 0 410 30" fill="none" xmlns="http://www.w3.org/2000/svg">
<path opacity="0.5" d="M61.6875 15.3906C61.5469 16.5938 61.1016 17.5234 60.3516 18.1797C59.6068 18.8307 58.6146 19.1562 57.375 19.1562C56.0312 19.1562 54.9531 18.6745 54.1406 17.7109C53.3333 16.7474 52.9297 15.4583 52.9297 13.8438V12.75C52.9297 11.6927 53.1172 10.763 53.4922 9.96094C53.8724 9.15885 54.4089 8.54427 55.1016 8.11719C55.7943 7.6849 56.5964 7.46875 57.5078 7.46875C58.7161 7.46875 59.6849 7.80729 60.4141 8.48438C61.1432 9.15625 61.5677 10.0885 61.6875 11.2812H60.1797C60.0495 10.375 59.7656 9.71875 59.3281 9.3125C58.8958 8.90625 58.2891 8.70312 57.5078 8.70312C56.5495 8.70312 55.7969 9.05729 55.25 9.76562C54.7083 10.474 54.4375 11.4818 54.4375 12.7891V13.8906C54.4375 15.125 54.6953 16.1068 55.2109 16.8359C55.7266 17.5651 56.4479 17.9297 57.375 17.9297C58.2083 17.9297 58.8464 17.7422 59.2891 17.3672C59.737 16.987 60.0339 16.3281 60.1797 15.3906H61.6875ZM63.6484 19V10.5469H66.9453C68.0703 10.5469 68.9323 10.7448 69.5312 11.1406C70.1354 11.5312 70.4375 12.1068 70.4375 12.8672C70.4375 13.2578 70.3203 13.612 70.0859 13.9297C69.8516 14.2422 69.5052 14.4818 69.0469 14.6484C69.5573 14.7682 69.9661 15.0026 70.2734 15.3516C70.5859 15.7005 70.7422 16.1172 70.7422 16.6016C70.7422 17.3776 70.4557 17.9714 69.8828 18.3828C69.3151 18.7943 68.5104 19 67.4688 19H63.6484ZM65.0938 15.2891V17.8359H67.4844C68.0885 17.8359 68.5391 17.724 68.8359 17.5C69.138 17.276 69.2891 16.9609 69.2891 16.5547C69.2891 15.7109 68.6693 15.2891 67.4297 15.2891H65.0938ZM65.0938 14.1328H66.9609C68.3151 14.1328 68.9922 13.737 68.9922 12.9453C68.9922 12.1536 68.3516 11.7448 67.0703 11.7188H65.0938V14.1328ZM72.2734 14.6953C72.2734 13.8672 72.4349 13.1224 72.7578 12.4609C73.0859 11.7995 73.5391 11.2891 74.1172 10.9297C74.7005 10.5703 75.3646 10.3906 76.1094 10.3906C77.2604 10.3906 78.1901 10.7891 78.8984 11.5859C79.612 12.3828 79.9688 13.4427 79.9688 14.7656V14.8672C79.9688 15.6901 79.8099 16.4297 79.4922 17.0859C79.1797 17.737 78.7292 18.2448 78.1406 18.6094C77.5573 18.974 76.8854 19.1562 76.125 19.1562C74.9792 19.1562 74.0495 18.7578 73.3359 17.9609C72.6276 17.1641 72.2734 16.1094 72.2734 14.7969V14.6953ZM73.7266 14.8672C73.7266 15.8047 73.9427 16.5573 74.375 17.125C74.8125 17.6927 75.3958 17.9766 76.125 17.9766C76.8594 17.9766 77.4427 17.6901 77.875 17.1172C78.3073 16.5391 78.5234 15.7318 78.5234 14.6953C78.5234 13.7682 78.3021 13.0182 77.8594 12.4453C77.4219 11.8672 76.8385 11.5781 76.1094 11.5781C75.3958 11.5781 74.8203 11.862 74.3828 12.4297C73.9453 12.9974 73.7266 13.8099 73.7266 14.8672ZM85.4922 11.0312C86.5547 11.0312 87.4036 11.388 88.0391 12.1016C88.6797 12.8099 89 13.7448 89 14.9062V15.0391C89 15.8359 88.8464 16.5495 88.5391 17.1797C88.2318 17.8047 87.7891 18.2917 87.2109 18.6406C86.638 18.9844 85.9766 19.1562 85.2266 19.1562C84.0911 19.1562 83.1771 18.7786 82.4844 18.0234C81.7917 17.263 81.4453 16.2448 81.4453 14.9688V14.2656C81.4453 12.4896 81.7734 11.0781 82.4297 10.0312C83.0911 8.98438 84.0651 8.34635 85.3516 8.11719C86.0807 7.98698 86.5729 7.82812 86.8281 7.64062C87.0833 7.45312 87.2109 7.19531 87.2109 6.86719H88.3984C88.3984 7.51823 88.25 8.02604 87.9531 8.39062C87.6615 8.75521 87.1927 9.01302 86.5469 9.16406L85.4688 9.40625C84.6094 9.60938 83.9635 9.95312 83.5312 10.4375C83.1042 10.9167 82.8255 11.5573 82.6953 12.3594C83.4609 11.474 84.3932 11.0312 85.4922 11.0312ZM85.2109 12.2188C84.5026 12.2188 83.9401 12.4583 83.5234 12.9375C83.1068 13.4115 82.8984 14.0703 82.8984 14.9141V15.0391C82.8984 15.9453 83.1068 16.6641 83.5234 17.1953C83.9453 17.7214 84.513 17.9844 85.2266 17.9844C85.9453 17.9844 86.513 17.7188 86.9297 17.1875C87.3464 16.6562 87.5547 15.8802 87.5547 14.8594C87.5547 14.0625 87.3438 13.4245 86.9219 12.9453C86.5052 12.4609 85.9349 12.2188 85.2109 12.2188ZM90.2422 14.6953C90.2422 13.8672 90.4036 13.1224 90.7266 12.4609C91.0547 11.7995 91.5078 11.2891 92.0859 10.9297C92.6693 10.5703 93.3333 10.3906 94.0781 10.3906C95.2292 10.3906 96.1589 10.7891 96.8672 11.5859C97.5807 12.3828 97.9375 13.4427 97.9375 14.7656V14.8672C97.9375 15.6901 97.7786 16.4297 97.4609 17.0859C97.1484 17.737 96.6979 18.2448 96.1094 18.6094C95.526 18.974 94.8542 19.1562 94.0938 19.1562C92.9479 19.1562 92.0182 18.7578 91.3047 17.9609C90.5964 17.1641 90.2422 16.1094 90.2422 14.7969V14.6953ZM91.6953 14.8672C91.6953 15.8047 91.9115 16.5573 92.3438 17.125C92.7812 17.6927 93.3646 17.9766 94.0938 17.9766C94.8281 17.9766 95.4115 17.6901 95.8438 17.1172C96.276 16.5391 96.4922 15.7318 96.4922 14.6953C96.4922 13.7682 96.2708 13.0182 95.8281 12.4453C95.3906 11.8672 94.8073 11.5781 94.0781 11.5781C93.3646 11.5781 92.7891 11.862 92.3516 12.4297C91.9141 12.9974 91.6953 13.8099 91.6953 14.8672ZM99.1172 17.8203L99.6172 17.2031C100.18 16.474 100.5 15.3802 100.578 13.9219L100.711 10.5469H106.156V17.8203H107.242V21.4844H105.797V19H99.8984V21.4844H98.4531L98.4609 17.8203H99.1172ZM100.828 17.8203H104.711V11.8828H102.109L102.023 13.8984C101.935 15.5807 101.536 16.888 100.828 17.8203ZM115.75 19H114.305V15.3906H110.422V19H108.969V10.5469H110.422V14.2109H114.305V10.5469H115.75V19ZM117.695 14.6953C117.695 13.8672 117.857 13.1224 118.18 12.4609C118.508 11.7995 118.961 11.2891 119.539 10.9297C120.122 10.5703 120.786 10.3906 121.531 10.3906C122.682 10.3906 123.612 10.7891 124.32 11.5859C125.034 12.3828 125.391 13.4427 125.391 14.7656V14.8672C125.391 15.6901 125.232 16.4297 124.914 17.0859C124.602 17.737 124.151 18.2448 123.562 18.6094C122.979 18.974 122.307 19.1562 121.547 19.1562C120.401 19.1562 119.471 18.7578 118.758 17.9609C118.049 17.1641 117.695 16.1094 117.695 14.7969V14.6953ZM119.148 14.8672C119.148 15.8047 119.365 16.5573 119.797 17.125C120.234 17.6927 120.818 17.9766 121.547 17.9766C122.281 17.9766 122.865 17.6901 123.297 17.1172C123.729 16.5391 123.945 15.7318 123.945 14.6953C123.945 13.7682 123.724 13.0182 123.281 12.4453C122.844 11.8672 122.26 11.5781 121.531 11.5781C120.818 11.5781 120.242 11.862 119.805 12.4297C119.367 12.9974 119.148 13.8099 119.148 14.8672Z" fill="white"/>
<rect x="5.5" width="26" height="23" rx="5" fill="white" fill-opacity="0.2"/>
<path d="M1 12V22.5C1.16667 24.6667 2.6 29 7 29C11.4 29 23.8333 29 29.5 29C31.8333 28.8333 36.5 27.1 36.5 21.5C36.5 15.9 36.5 12.8333 36.5 12" stroke="white" stroke-opacity="0.2" stroke-width="2" stroke-linejoin="round"/>
<path d="M209.32 19V7.625H213.039C214.273 7.625 215.201 7.88021 215.82 8.39062C216.445 8.90104 216.758 9.65625 216.758 10.6562C216.758 11.1875 216.607 11.6589 216.305 12.0703C216.003 12.4766 215.591 12.7917 215.07 13.0156C215.685 13.1875 216.169 13.5156 216.523 14C216.883 14.4792 217.062 15.0521 217.062 15.7188C217.062 16.7396 216.732 17.5417 216.07 18.125C215.409 18.7083 214.474 19 213.266 19H209.32ZM210.82 13.6797V17.7734H213.297C213.995 17.7734 214.544 17.5938 214.945 17.2344C215.352 16.8698 215.555 16.3698 215.555 15.7344C215.555 14.3646 214.81 13.6797 213.32 13.6797H210.82ZM210.82 12.4766H213.086C213.742 12.4766 214.266 12.3125 214.656 11.9844C215.052 11.6562 215.25 11.2109 215.25 10.6484C215.25 10.0234 215.068 9.57031 214.703 9.28906C214.339 9.0026 213.784 8.85938 213.039 8.85938H210.82V12.4766ZM220.641 13.4609H222.836C223.794 13.4714 224.552 13.7214 225.109 14.2109C225.667 14.7005 225.945 15.3646 225.945 16.2031C225.945 17.0469 225.659 17.724 225.086 18.2344C224.513 18.7448 223.742 19 222.773 19H219.195V10.5469H220.641V13.4609ZM228.961 19H227.508V10.5469H228.961V19ZM220.641 14.6406V17.8203H222.789C223.331 17.8203 223.75 17.6823 224.047 17.4062C224.344 17.125 224.492 16.7422 224.492 16.2578C224.492 15.7891 224.346 15.4062 224.055 15.1094C223.768 14.8073 223.365 14.651 222.844 14.6406H220.641ZM235.195 11.0312C236.258 11.0312 237.107 11.388 237.742 12.1016C238.383 12.8099 238.703 13.7448 238.703 14.9062V15.0391C238.703 15.8359 238.549 16.5495 238.242 17.1797C237.935 17.8047 237.492 18.2917 236.914 18.6406C236.341 18.9844 235.68 19.1562 234.93 19.1562C233.794 19.1562 232.88 18.7786 232.188 18.0234C231.495 17.263 231.148 16.2448 231.148 14.9688V14.2656C231.148 12.4896 231.477 11.0781 232.133 10.0312C232.794 8.98438 233.768 8.34635 235.055 8.11719C235.784 7.98698 236.276 7.82812 236.531 7.64062C236.786 7.45312 236.914 7.19531 236.914 6.86719H238.102C238.102 7.51823 237.953 8.02604 237.656 8.39062C237.365 8.75521 236.896 9.01302 236.25 9.16406L235.172 9.40625C234.312 9.60938 233.667 9.95312 233.234 10.4375C232.807 10.9167 232.529 11.5573 232.398 12.3594C233.164 11.474 234.096 11.0312 235.195 11.0312ZM234.914 12.2188C234.206 12.2188 233.643 12.4583 233.227 12.9375C232.81 13.4115 232.602 14.0703 232.602 14.9141V15.0391C232.602 15.9453 232.81 16.6641 233.227 17.1953C233.648 17.7214 234.216 17.9844 234.93 17.9844C235.648 17.9844 236.216 17.7188 236.633 17.1875C237.049 16.6562 237.258 15.8802 237.258 14.8594C237.258 14.0625 237.047 13.4245 236.625 12.9453C236.208 12.4609 235.638 12.2188 234.914 12.2188ZM247.328 14.8672C247.328 16.1536 247.034 17.1901 246.445 17.9766C245.857 18.763 245.06 19.1562 244.055 19.1562C243.029 19.1562 242.221 18.8307 241.633 18.1797V22.25H240.188V10.5469H241.508L241.578 11.4844C242.167 10.7552 242.984 10.3906 244.031 10.3906C245.047 10.3906 245.849 10.7734 246.438 11.5391C247.031 12.3047 247.328 13.3698 247.328 14.7344V14.8672ZM245.883 14.7031C245.883 13.75 245.68 12.9974 245.273 12.4453C244.867 11.8932 244.31 11.6172 243.602 11.6172C242.727 11.6172 242.07 12.0052 241.633 12.7812V16.8203C242.065 17.5911 242.727 17.9766 243.617 17.9766C244.31 17.9766 244.859 17.7031 245.266 17.1562C245.677 16.6042 245.883 15.7865 245.883 14.7031ZM254.391 19C254.307 18.8333 254.24 18.5365 254.188 18.1094C253.516 18.8073 252.714 19.1562 251.781 19.1562C250.948 19.1562 250.263 18.9219 249.727 18.4531C249.195 17.9792 248.93 17.3802 248.93 16.6562C248.93 15.776 249.263 15.0938 249.93 14.6094C250.602 14.1198 251.544 13.875 252.758 13.875H254.164V13.2109C254.164 12.7057 254.013 12.3047 253.711 12.0078C253.409 11.7057 252.964 11.5547 252.375 11.5547C251.859 11.5547 251.427 11.6849 251.078 11.9453C250.729 12.2057 250.555 12.5208 250.555 12.8906H249.102C249.102 12.4688 249.25 12.0625 249.547 11.6719C249.849 11.276 250.255 10.9635 250.766 10.7344C251.281 10.5052 251.846 10.3906 252.461 10.3906C253.435 10.3906 254.198 10.6354 254.75 11.125C255.302 11.6094 255.589 12.2786 255.609 13.1328V17.0234C255.609 17.7995 255.708 18.4167 255.906 18.875V19H254.391ZM251.992 17.8984C252.445 17.8984 252.875 17.7812 253.281 17.5469C253.688 17.3125 253.982 17.0078 254.164 16.6328V14.8984H253.031C251.26 14.8984 250.375 15.4167 250.375 16.4531C250.375 16.9062 250.526 17.2604 250.828 17.5156C251.13 17.7708 251.518 17.8984 251.992 17.8984ZM264.781 19H263.336V15.3906H259.453V19H258V10.5469H259.453V14.2109H263.336V10.5469H264.781V19ZM266.727 14.6953C266.727 13.8672 266.888 13.1224 267.211 12.4609C267.539 11.7995 267.992 11.2891 268.57 10.9297C269.154 10.5703 269.818 10.3906 270.562 10.3906C271.714 10.3906 272.643 10.7891 273.352 11.5859C274.065 12.3828 274.422 13.4427 274.422 14.7656V14.8672C274.422 15.6901 274.263 16.4297 273.945 17.0859C273.633 17.737 273.182 18.2448 272.594 18.6094C272.01 18.974 271.339 19.1562 270.578 19.1562C269.432 19.1562 268.503 18.7578 267.789 17.9609C267.081 17.1641 266.727 16.1094 266.727 14.7969V14.6953ZM268.18 14.8672C268.18 15.8047 268.396 16.5573 268.828 17.125C269.266 17.6927 269.849 17.9766 270.578 17.9766C271.312 17.9766 271.896 17.6901 272.328 17.1172C272.76 16.5391 272.977 15.7318 272.977 14.6953C272.977 13.7682 272.755 13.0182 272.312 12.4453C271.875 11.8672 271.292 11.5781 270.562 11.5781C269.849 11.5781 269.273 11.862 268.836 12.4297C268.398 12.9974 268.18 13.8099 268.18 14.8672Z" fill="#FE8E05"/>
<rect x="161.5" width="26" height="23" rx="5" fill="#FE8E05"/>
<path d="M157 12V22.5C157.167 24.6667 158.6 29 163 29C167.4 29 179.833 29 185.5 29C187.833 28.8333 192.5 27.1 192.5 21.5C192.5 15.9 192.5 12.8333 192.5 12" stroke="#FE8E05" stroke-width="2" stroke-linejoin="round"/>
<path opacity="0.5" d="M364.156 10.6797C364.156 10.0755 363.935 9.59635 363.492 9.24219C363.055 8.88281 362.438 8.70312 361.641 8.70312C360.974 8.70312 360.414 8.88802 359.961 9.25781C359.513 9.6224 359.289 10.0755 359.289 10.6172H357.789C357.789 10.013 357.953 9.47135 358.281 8.99219C358.615 8.51302 359.078 8.14062 359.672 7.875C360.266 7.60417 360.922 7.46875 361.641 7.46875C362.911 7.46875 363.898 7.75521 364.602 8.32812C365.305 8.89583 365.656 9.6875 365.656 10.7031C365.656 11.2292 365.495 11.7083 365.172 12.1406C364.849 12.5729 364.398 12.9141 363.82 13.1641C365.159 13.612 365.828 14.5 365.828 15.8281C365.828 16.849 365.448 17.6589 364.688 18.2578C363.927 18.8568 362.911 19.1562 361.641 19.1562C360.885 19.1562 360.198 19.0234 359.578 18.7578C358.964 18.487 358.484 18.1042 358.141 17.6094C357.797 17.1146 357.625 16.526 357.625 15.8438H359.125C359.125 16.4427 359.362 16.9427 359.836 17.3438C360.31 17.7396 360.911 17.9375 361.641 17.9375C362.458 17.9375 363.109 17.7474 363.594 17.3672C364.083 16.987 364.328 16.4844 364.328 15.8594C364.328 14.526 363.503 13.8464 361.852 13.8203H360.445V12.5859H361.844C362.604 12.5703 363.18 12.3984 363.57 12.0703C363.961 11.7422 364.156 11.2786 364.156 10.6797ZM372.812 19C372.729 18.8333 372.661 18.5365 372.609 18.1094C371.938 18.8073 371.135 19.1562 370.203 19.1562C369.37 19.1562 368.685 18.9219 368.148 18.4531C367.617 17.9792 367.352 17.3802 367.352 16.6562C367.352 15.776 367.685 15.0938 368.352 14.6094C369.023 14.1198 369.966 13.875 371.18 13.875H372.586V13.2109C372.586 12.7057 372.435 12.3047 372.133 12.0078C371.831 11.7057 371.385 11.5547 370.797 11.5547C370.281 11.5547 369.849 11.6849 369.5 11.9453C369.151 12.2057 368.977 12.5208 368.977 12.8906H367.523C367.523 12.4688 367.672 12.0625 367.969 11.6719C368.271 11.276 368.677 10.9635 369.188 10.7344C369.703 10.5052 370.268 10.3906 370.883 10.3906C371.857 10.3906 372.62 10.6354 373.172 11.125C373.724 11.6094 374.01 12.2786 374.031 13.1328V17.0234C374.031 17.7995 374.13 18.4167 374.328 18.875V19H372.812ZM370.414 17.8984C370.867 17.8984 371.297 17.7812 371.703 17.5469C372.109 17.3125 372.404 17.0078 372.586 16.6328V14.8984H371.453C369.682 14.8984 368.797 15.4167 368.797 16.4531C368.797 16.9062 368.948 17.2604 369.25 17.5156C369.552 17.7708 369.94 17.8984 370.414 17.8984ZM383.203 19H381.758V15.3906H377.875V19H376.422V10.5469H377.875V14.2109H381.758V10.5469H383.203V19ZM391.992 10.5469V19H390.539V15.7109H388.359L386.367 19H384.805L386.93 15.4922C386.388 15.2943 385.971 14.9896 385.68 14.5781C385.393 14.1615 385.25 13.6771 385.25 13.125C385.25 12.3542 385.539 11.7344 386.117 11.2656C386.695 10.7917 387.469 10.5521 388.438 10.5469H391.992ZM386.703 13.1406C386.703 13.5521 386.844 13.8854 387.125 14.1406C387.406 14.3906 387.779 14.5182 388.242 14.5234H390.539V11.7188H388.461C387.924 11.7188 387.497 11.8516 387.18 12.1172C386.862 12.3776 386.703 12.7188 386.703 13.1406ZM400.594 11.7188H397.758V19H396.312V11.7188H393.531V10.5469H400.594V11.7188ZM401.289 14.6953C401.289 13.8672 401.451 13.1224 401.773 12.4609C402.102 11.7995 402.555 11.2891 403.133 10.9297C403.716 10.5703 404.38 10.3906 405.125 10.3906C406.276 10.3906 407.206 10.7891 407.914 11.5859C408.628 12.3828 408.984 13.4427 408.984 14.7656V14.8672C408.984 15.6901 408.826 16.4297 408.508 17.0859C408.195 17.737 407.745 18.2448 407.156 18.6094C406.573 18.974 405.901 19.1562 405.141 19.1562C403.995 19.1562 403.065 18.7578 402.352 17.9609C401.643 17.1641 401.289 16.1094 401.289 14.7969V14.6953ZM402.742 14.8672C402.742 15.8047 402.958 16.5573 403.391 17.125C403.828 17.6927 404.411 17.9766 405.141 17.9766C405.875 17.9766 406.458 17.6901 406.891 17.1172C407.323 16.5391 407.539 15.7318 407.539 14.6953C407.539 13.7682 407.318 13.0182 406.875 12.4453C406.438 11.8672 405.854 11.5781 405.125 11.5781C404.411 11.5781 403.836 11.862 403.398 12.4297C402.961 12.9974 402.742 13.8099 402.742 14.8672Z" fill="white"/>
<rect x="310.5" width="26" height="23" rx="5" fill="white" fill-opacity="0.05"/>
<path d="M306 12V22.5C306.167 24.6667 307.6 29 312 29C316.4 29 328.833 29 334.5 29C336.833 28.8333 341.5 27.1 341.5 21.5C341.5 15.9 341.5 12.8333 341.5 12" stroke="white" stroke-opacity="0.05" stroke-width="2" stroke-linejoin="round"/>
</svg>
